<svg xmlns="http://www.w3.org/2000/svg" version="1.1" xmlns:xlink="http://www.w3.org/1999/xlink" xmlns:svgjs="http://svgjs.dev/svgjs" width="1500" height="1500" viewBox="0 0 1500 1500"><rect width="1500" height="1500" fill="#05445e"></rect><g transform="matrix(0.6666666666666666,0,0,0.6666666666666666,250.00007343750008,187.66666666666674)"><svg viewBox="0 0 320 360" data-background-color="#05445e" preserveAspectRatio="xMidYMid meet" height="1687" width="1500" xmlns="http://www.w3.org/2000/svg" xmlns:xlink="http://www.w3.org/1999/xlink"><g id="tight-bounds" transform="matrix(1,0,0,1,0.000023499999997511622,0)"><svg viewBox="0 0 320 360" height="360" width="320"><g><svg></svg></g><g><svg viewBox="0 0 320 360" height="360" width="320"><g><path transform="translate(-74.99272,-51.79039) scale(4.65793,4.65793)" d="M20.6 59.9l0.8 1-0.4-1.3c-0.1-0.6-0.8 0.1-0.4 0.3M21.5 59.3c0.3 0.5 0.6 1 0.6 1.5 0 0.7 0.6 1 1.1 1.2-0.7-0.8-1.1-3-1.7-2.7M59.9 16.9c1.7 0 3.3-0.2 5.1 0.2 4.4 1.1 8.1 3.3 10.6 6.4l7 11.2c0.3 2.8 0.9 5.9 0.8 9.3 0.7 0 0.6-1 1.4-1.2-0.8 2-1.2 4.5-1.4 7.4-0.5-1.6 0-4 0.1-5.3-0.7 1.1-1.1 0.3-1.1-0.2 0.1-0.8-0.3-0.7-0.6-1-1.1-1-1.8-2.1-2.6-3.8 0.5-1.3 0.6-3.2-1-4.2-0.5-0.3-1.1-0.8-1.4-1.6-0.4-1.1-1.1-2.4-0.9-4.1 0.1-0.5-1.5 1.1-2.4 0.4-3.9-2.7-7.8-5.8-12.5-8.4-2.5 0-4.3-0.9-5.2-2-0.8-1-0.2-2.3 1-2.4 0.7 0 1.5-0.2 2.1 0.2 0.1-0.4 0.5-0.9 1-0.9M50 14.6l0.2 0.1c1 0.2 1.5 1.6 2.6 1.1 0 0.7 0.1 1.4-0.1 1.9-0.3 0.8-1.2 0.8-1.9 0.8-6.7-0.4-10.6 2.4-14.7 4.8-1.1 0.7-2.3 1.2-3.2 2.1-4.3 4-9 7.7-10.1 15.1l-0.9 8.2c-0.1 0.9-1.1 1.8-0.9 2.9l0.7 4.9c-0.7-0.7-1.1 0.2-0.9 0.6 0.1 0.3 0.5 1.3 1.1 0.4 0.8 1.5 1.6 4.4 2.7 5.7 3.4 4 7.8 7.6 11.4 11.2 0.9-0.2 1.6-0.2 1.8-0.8 0.3 0.6-0.3 1.2-0.8 1.3 1.6 1 3.4 1.9 5.8 2.1 3.1 0.2 6 0.7 8.7 1.4 1.4-0.4 2.8-0.6 4.3-0.7 0.5 0 0.8-0.8 1.4-1l0.1-1c0.6 0.9 0.5-0.3 0.1-0.9 0.7 0.6 0.9 1.1 1.2 1.5 0-0.3 0.8-1.4 0.8-0.1l0.2-1.3c0.3-0.2 0.4 1.1 0.7 0.2 0.3-0.9 0.9-0.2 1.5-0.5-0.2 0.4-0.1 1.2 0.6 0.7l0.8-0.7c0.5 1.2 1.3 0.7 1.7 0.5 4.4-2.8 8.8-6.1 13-9.4l-0.1 1.3 0.5-1.6c0.5 0.5 0.9 0.1 1.1-0.2 0.6-1 1.4-2 2.7-2.9-1.6 4.3-3.5 7.7-5.9 10.5l-1 1.2c0 0.7-0.2 1.6-1 1.7-0.4 0.1-1.2-0.2-1.8 0.4-0.3 0.4 0.7 1.2-0.1 0.6-0.7-0.5-1.4 0-2.2 0.2-0.6 0.2 0.4 0.8 0.6 1.2 0.2 0.4 0.4 0.8 0.3 1.3l-1.1-1.2c-1.3 0.7-2.1 2-3.2 3-0.5 0.4-0.3 1.1-0.3 1.7-0.7 0-1.5-0.2-1.9 0.2-0.3 0.4-0.2 1-0.2 1.6-1-0.1-1.1-1.6-2-1.3-0.9 0.2-1.9 0.3-2.7 0.8 0.6 1.2-1 0.5-0.8 0.7-1.5-0.9-2.8-1.6-4.4-1-3.4-1.1-7.6-0.6-10.7-0.2 0-0.5 0.1-1-0.1-1.1-0.2 0.5-0.8 0.3-0.7 0.3-1.9-1.3-3.8-2.1-5.8-3.2-1.8 0.2-3.5-0.7-4-1.2-1.4-1.3-3-0.6-4.3-0.9-2.8-0.7-3.8-3.6-4.1-5.6-0.2-1-1-1.4-1.3-1.3-1.3-4.2-3.3-8-4.9-11.9-0.4-1-0.3-2-0.3-3.1 0.5 0.2 1 0.1 0.9-0.6-0.5-3.3-1.7-5.8-3-8.2 0.7-3.4 0.8-7.4 2.4-10.4 1.4-2.7 4-4.1 5.8-6.4 0.6-0.8 0.6-1.9 1.2-2.6 2-2 4-4.1 6.2-5.9 1-0.8 2.2 0 3.7-0.3 0.5-1.8 2.5-3.4 4.4-2.9 0.8 0.2 2.4-1.9 2.9-2.1 0.8-0.3 0.4 0.8 0.4 1.5 1.9-1.5 4.5-2.3 6.9-3.2" fill="#75e6da" fill-rule="nonzero" stroke="none" stroke-width="1" stroke-linecap="butt" stroke-linejoin="miter" stroke-miterlimit="10" stroke-dasharray="" stroke-dashoffset="0" font-family="none" font-weight="none" font-size="none" text-anchor="none" style="mix-blend-mode: normal" data-fill-palette-color="tertiary"></path></g><g transform="matrix(1,0,0,1,64,133.86245497882638)"><svg viewBox="0 0 192 92.27509004234724" height="92.27509004234724" width="192"><g><svg viewBox="0 0 192 92.27509004234724" height="92.27509004234724" width="192"><g transform="matrix(1,0,0,1,0,56.07424309739867)"><svg viewBox="0 0 192 36.20084694494858" height="36.20084694494858" width="192"><g id="textblocktransform"><svg viewBox="0 0 192 36.20084694494858" height="36.20084694494858" width="192" id="textblock"><g><svg viewBox="0 0 192 36.20084694494858" height="36.20084694494858" width="192"><g transform="matrix(1,0,0,1,0,0)"><svg width="192" viewBox="3.25 -36.95 247.93 46.75" height="36.20084694494858" data-palette-color="#d4f1f4"><path d="M31.05-33.7L31.05 0 23.3 0 23.3-13.45 10.95-13.45 10.95 0 3.25 0 3.25-33.7 10.95-33.7 10.95-20 23.3-20 23.3-33.7 31.05-33.7ZM43.9-7.2Q45.2-5.9 45.2-4.05 45.2-2.2 43.9-0.9 42.6 0.4 40.75 0.4 38.9 0.4 37.6-0.9 36.3-2.2 36.3-4.05 36.3-5.9 37.6-7.2 38.9-8.5 40.75-8.5 42.6-8.5 43.9-7.2ZM67.05-12.4L67.05 0 59.35 0 59.35-12.35 47.85-33.7 56.85-33.7 58.9-28.8Q60.5-25 61.55-22.3 62.6-19.6 62.9-18.8L62.9-18.8 63.15-18Q63.65-20.25 67.55-28.8L67.55-28.8 69.75-33.7 78.7-33.7 67.05-12.4ZM91.64-5L91.64-5Q93.19-5 94.04-5.95 94.89-6.9 94.89-8.55L94.89-8.55 94.89-10.4 92.54-10.4Q90.69-10.4 89.69-9.6 88.69-8.8 88.69-7.55L88.69-7.55Q88.69-5 91.64-5ZM95.24 0L95.24-3.1Q93.64 0.15 88.94 0.15L88.94 0.15Q85.24 0.15 83.17-1.95 81.09-4.05 81.09-7.2L81.09-7.2Q81.09-10.85 83.77-12.88 86.44-14.9 91.69-14.9L91.69-14.9 94.89-14.9 94.89-16.65Q94.89-19.85 90.64-19.85L90.64-19.85Q86.54-19.85 83.04-17.55L83.04-17.55 83.04-24.1Q86.04-25.8 91.69-25.8L91.69-25.8Q97.09-25.8 99.74-23.48 102.39-21.15 102.39-16.25L102.39-16.25 102.39 0 95.24 0ZM131.64-25.35L131.64-2.45Q131.64 3.65 127.99 6.73 124.34 9.8 118.84 9.8L118.84 9.8Q113.49 9.8 109.49 7.9L109.49 7.9 109.49 0.45Q112.99 3.25 118.09 3.25L118.09 3.25Q121.39 3.25 122.89 1.85 124.39 0.45 124.39-2.55L124.39-2.55 124.39-4.25Q122.19-0.85 117.39-0.85L117.39-0.85Q113.19-0.85 110.17-3.95 107.14-7.05 107.14-13.15L107.14-13.15Q107.14-18.55 110.06-22.08 112.99-25.6 117.74-25.6L117.74-25.6Q122.24-25.6 124.39-22L124.39-22 124.39-25.35 131.64-25.35ZM114.74-13.1L114.74-13.1Q114.74-9.95 115.94-8.3 117.14-6.65 119.39-6.65L119.39-6.65Q121.74-6.65 123.06-8.43 124.39-10.2 124.39-12.7L124.39-12.7Q124.39-19.5 119.44-19.5L119.44-19.5Q117.24-19.5 115.99-17.8 114.74-16.1 114.74-13.1ZM160.64-16.15L160.64 0 153.34 0 153.34-15Q153.34-17.2 152.24-18.45 151.14-19.7 149.39-19.7L149.39-19.7Q148.64-19.7 147.96-19.48 147.29-19.25 146.49-18.68 145.69-18.1 145.19-16.73 144.69-15.35 144.69-13.4L144.69-13.4 144.69 0 137.39 0 137.39-35.35 144.69-35.35 144.69-21.05Q146.64-25.6 152.29-25.6L152.29-25.6Q155.99-25.6 158.31-23.25 160.64-20.9 160.64-16.15L160.64-16.15ZM189.98-12.8L189.98-12.8Q189.98-7.05 186.71-3.33 183.44 0.4 177.58 0.4L177.58 0.4Q171.63 0.4 168.38-3.18 165.13-6.75 165.13-12.35L165.13-12.35Q165.13-18.2 168.53-21.98 171.94-25.75 177.58-25.75L177.58-25.75Q183.48-25.75 186.73-22.1 189.98-18.45 189.98-12.8ZM173.94-17.95Q172.73-15.9 172.73-12.65 172.73-9.4 173.96-7.33 175.19-5.25 177.63-5.25L177.63-5.25Q180.03-5.25 181.21-7.28 182.38-9.3 182.38-12.55L182.38-12.55Q182.38-20 177.53-20L177.53-20Q175.13-20 173.94-17.95ZM217.73-25.35L217.73 0 210.43 0 210.43-4.05Q208.43 0.2 202.73 0.2L202.73 0.2Q198.83 0.2 196.66-1.98 194.48-4.15 194.48-8.4L194.48-8.4 194.48-25.35 201.78-25.35 201.78-10.05Q201.78-5.6 205.68-5.6L205.68-5.6Q210.43-5.6 210.43-11.95L210.43-11.95 210.43-25.35 217.73-25.35ZM238.53-6.6L238.53-0.55Q236.68 0.25 233.53 0.25L233.53 0.25Q224.88 0.25 224.88-8.4L224.88-8.4 224.88-20 221.23-20 221.23-25.35 224.88-25.35 224.88-31.35 232.18-31.35 232.18-25.35 238.08-25.35 238.08-20 232.18-20 232.18-8.35Q232.18-7 232.95-6.3 233.73-5.6 234.98-5.6L234.98-5.6Q236.98-5.6 238.53-6.6L238.53-6.6ZM250.58-25.35L250.58 0 243.28 0 243.28-25.35 250.58-25.35ZM249.93-35.7Q251.18-34.45 251.18-32.7 251.18-30.95 249.93-29.7 248.68-28.45 246.93-28.45 245.18-28.45 243.93-29.7 242.68-30.95 242.68-32.7 242.68-34.45 243.93-35.7 245.18-36.95 246.93-36.95 248.68-36.95 249.93-35.7Z" opacity="1" transform="matrix(1,0,0,1,0,0)" fill="#d4f1f4" class="wordmark-text-0" data-fill-palette-color="primary" id="text-0"></path></svg></g></svg></g></svg></g></svg></g><g transform="matrix(1,0,0,1,69.02626469622331,0)"><svg viewBox="0 0 53.94747060755337 47.52809195402299" height="47.52809195402299" width="53.94747060755337"><g><svg xmlns="http://www.w3.org/2000/svg" xmlns:xlink="http://www.w3.org/1999/xlink" version="1.1" x="0" y="0" viewBox="6.3 11.5 87.4 77" style="enable-background:new 0 0 100 100;" xml:space="preserve" height="47.52809195402299" width="53.94747060755337" class="icon-icon-0" data-fill-palette-color="accent" id="icon-0"><path d="M72.3 12.3L71.9 11.5H28.2L6.3 50 28.1 88.5H71.8L93.7 50zM33.3 25.3L9.9 47.7 28.5 14.9zM70.7 14.8L77.1 50.5 36.9 25.8zM35.5 27.3L76.5 52.5 35.5 75.8zM77 54.5L69.8 85.3 37.2 77.2zM33.5 75L9.9 50.5 33.5 27.8zM33.2 77.6L28.6 85.3 11.5 55.1zM35 78.6L66.4 86.5H30.2zM79.3 53.3L90.9 50.8 72.1 84zM90.7 48.9L79.3 51.4 73.4 18.3zM35 24.3L30 13.5H68.2z" fill="#75e6da" data-fill-palette-color="accent"></path></svg></g></svg></g><g></g></svg></g></svg></g></svg></g><defs></defs></svg><rect width="320" height="360" fill="none" stroke="none" visibility="hidden"></rect></g></svg></g></svg>